<svg viewBox="0 0 14 14" xmlns="http://www.w3.org/2000/svg"><path d="m1.5123525 6.013965c0-.6058.1933405-1.147153.5735768-1.62406.3802363-.476906.8635875-.779806 1.4500537-.9087.1611171-.721805.528464-1.32116 1.1084855-1.785177.580021-.464017 1.237379-.696026 1.984962-.696026.721805 0 1.372718.225564 1.946295.676692s.940923 1.031149 1.11493 1.733619h.174006c.7218045 0 1.3404935.251343 1.8560695.760473.509129.502685.766917 1.121375.766917 1.836735 0 .386681-.07734.754028-.238453 1.095596-.161118.341568-.380236.638024-.663803.882922v.01933c0 .380236-.122448.721804-.360903 1.024704-.238453.3029-.541353.489796-.902255.573577-.09023.39957-.290011.741139-.5864655 1.01826-.296456.277121-.650913.451128-1.050484.515575.186896.219119.277122.464017.277122.728249 0 .309345-.10956.573577-.328679.79914-.219119.21912-.483351.335124-.792696.335124s-.573577-.10956-.792696-.335124c-.219119-.219119-.328679-.489795-.328679-.79914 0-.122449.01933-.244898.06445-.367347h-.06445c-.373792 0-.696026-.135339-.966702-.406015-.270677-.270677-.406016-.592911-.406016-.966703 0-.257787.06445-.489796.193341-.689581-.335124-.186896-.5735768-.451128-.7218046-.805585h-.8249194v-.0064c-.6895811-.045154-1.2760473-.31583-1.7593985-.818516-.4833512-.502685-.7218045-1.095596-.7218045-1.791622zm.9022556-.161117c0 .515575.1804512.953814.5413534 1.314716.3609023.360902.7991407.541353 1.3082707.541353.3157895 0 .6122449-.07089.8829216-.219119.077336.476906.3028997.876477.6702467 1.198711s.805586.476907 1.301826.476907c.560688 0 1.037594-.199786 1.43072-.592911.264232.309344.592911.457572.992481.457572.367347 0 .6766915-.128893.9409245-.386681.257787-.257787.38668-.573577.38668-.940924.257787-.174006.464017-.393125.612246-.670247.148228-.270676.225563-.567132.225563-.882921 0-.50913-.180451-.947369-.547798-1.301826-.367347-.354458-.805586-.534909-1.3211595-.534909-.360903 0-.689581.09667-.986037.283566.03867-.154672.05156-.328679.05156-.50913 0-.618689-.21912-1.147153-.663803-1.585392-.444683-.438238-.979592-.650913-1.604726-.650913-.6058 0-1.127819.212675-1.5660579.625134-.4382385.41246-.6702471.928035-.6895811 1.52739-.012889 0-.032223 0-.051557 0-.025779 0-.045113 0-.058002 0-.50913 0-.9409238.180451-1.3082707.541354-.3673469.360902-.5477981.805585-.5477981 1.30827z"/></svg>